<svg width="6172" height="1929" viewBox="0 0 6172 1929" fill="none" xmlns="http://www.w3.org/2000/svg">
<path d="M54.1818 618.151V804.333H15.4545V618.151H54.1818ZM148.295 807.061C134.174 807.061 121.962 804.061 111.659 798.061C101.417 792 93.5076 783.576 87.9318 772.788C82.3561 761.939 79.5682 749.364 79.5682 735.061C79.5682 720.636 82.3561 708.03 87.9318 697.242C93.5076 686.394 101.417 677.97 111.659 671.97C121.962 665.909 134.174 662.879 148.295 662.879C162.417 662.879 174.598 665.909 184.841 671.97C195.144 677.97 203.083 686.394 208.659 697.242C214.235 708.03 217.023 720.636 217.023 735.061C217.023 749.364 214.235 761.939 208.659 772.788C203.083 783.576 195.144 792 184.841 798.061C174.598 804.061 162.417 807.061 148.295 807.061ZM148.477 777.061C154.902 777.061 160.265 775.242 164.568 771.606C168.871 767.909 172.114 762.879 174.295 756.515C176.538 750.151 177.659 742.909 177.659 734.788C177.659 726.667 176.538 719.424 174.295 713.061C172.114 706.697 168.871 701.667 164.568 697.97C160.265 694.273 154.902 692.424 148.477 692.424C141.992 692.424 136.538 694.273 132.114 697.97C127.75 701.667 124.447 706.697 122.205 713.061C120.023 719.424 118.932 726.667 118.932 734.788C118.932 742.909 120.023 750.151 122.205 756.515C124.447 762.879 127.75 767.909 132.114 771.606C136.538 775.242 141.992 777.061 148.477 777.061ZM305.114 859.606C292.568 859.606 281.811 857.879 272.841 854.424C263.932 851.03 256.841 846.394 251.568 840.515C246.295 834.636 242.871 828.03 241.295 820.697L277.114 815.879C278.205 818.667 279.932 821.273 282.295 823.697C284.659 826.121 287.78 828.061 291.659 829.515C295.598 831.03 300.386 831.788 306.023 831.788C314.447 831.788 321.386 829.727 326.841 825.606C332.356 821.545 335.114 814.727 335.114 805.151V779.606H333.477C331.78 783.485 329.235 787.151 325.841 790.606C322.447 794.061 318.083 796.879 312.75 799.061C307.417 801.242 301.053 802.333 293.659 802.333C283.174 802.333 273.629 799.909 265.023 795.061C256.477 790.151 249.659 782.667 244.568 772.606C239.538 762.485 237.023 749.697 237.023 734.242C237.023 718.424 239.598 705.212 244.75 694.606C249.902 684 256.75 676.061 265.295 670.788C273.902 665.515 283.326 662.879 293.568 662.879C301.386 662.879 307.932 664.212 313.205 666.879C318.477 669.485 322.72 672.757 325.932 676.697C329.205 680.576 331.72 684.394 333.477 688.151H334.932V664.697H373.386V805.697C373.386 817.576 370.477 827.515 364.659 835.515C358.841 843.515 350.78 849.515 340.477 853.515C330.235 857.576 318.447 859.606 305.114 859.606ZM305.932 773.242C312.174 773.242 317.447 771.697 321.75 768.606C326.114 765.454 329.447 760.97 331.75 755.151C334.114 749.273 335.295 742.242 335.295 734.061C335.295 725.879 334.144 718.788 331.841 712.788C329.538 706.727 326.205 702.03 321.841 698.697C317.477 695.364 312.174 693.697 305.932 693.697C299.568 693.697 294.205 695.424 289.841 698.879C285.477 702.273 282.174 707 279.932 713.061C277.689 719.121 276.568 726.121 276.568 734.061C276.568 742.121 277.689 749.091 279.932 754.97C282.235 760.788 285.538 765.303 289.841 768.515C294.205 771.667 299.568 773.242 305.932 773.242ZM467.295 807.061C453.174 807.061 440.962 804.061 430.659 798.061C420.417 792 412.508 783.576 406.932 772.788C401.356 761.939 398.568 749.364 398.568 735.061C398.568 720.636 401.356 708.03 406.932 697.242C412.508 686.394 420.417 677.97 430.659 671.97C440.962 665.909 453.174 662.879 467.295 662.879C481.417 662.879 493.598 665.909 503.841 671.97C514.144 677.97 522.083 686.394 527.659 697.242C533.235 708.03 536.023 720.636 536.023 735.061C536.023 749.364 533.235 761.939 527.659 772.788C522.083 783.576 514.144 792 503.841 798.061C493.598 804.061 481.417 807.061 467.295 807.061ZM467.477 777.061C473.902 777.061 479.265 775.242 483.568 771.606C487.871 767.909 491.114 762.879 493.295 756.515C495.538 750.151 496.659 742.909 496.659 734.788C496.659 726.667 495.538 719.424 493.295 713.061C491.114 706.697 487.871 701.667 483.568 697.97C479.265 694.273 473.902 692.424 467.477 692.424C460.992 692.424 455.538 694.273 451.114 697.97C446.75 701.667 443.447 706.697 441.205 713.061C439.023 719.424 437.932 726.667 437.932 734.788C437.932 742.909 439.023 750.151 441.205 756.515C443.447 762.879 446.75 767.909 451.114 771.606C455.538 775.242 460.992 777.061 467.477 777.061ZM629 729.697C629 707.151 632 686.394 638 667.424C644.061 648.454 653.303 630.879 665.727 614.697H702.727C698 620.697 693.606 628.03 689.545 636.697C685.485 645.303 681.939 654.757 678.909 665.061C675.879 675.364 673.515 686.03 671.818 697.061C670.121 708.03 669.273 718.909 669.273 729.697C669.273 744.061 670.727 758.576 673.636 773.242C676.606 787.848 680.606 801.424 685.636 813.97C690.727 826.515 696.424 836.788 702.727 844.788H665.727C653.303 828.606 644.061 811.03 638 792.061C632 773.091 629 752.303 629 729.697ZM787.045 807.061C772.742 807.061 760.439 804.03 750.136 797.97C739.894 791.848 732.015 783.364 726.5 772.515C721.045 761.667 718.318 749.182 718.318 735.061C718.318 720.757 721.076 708.212 726.591 697.424C732.167 686.576 740.076 678.121 750.318 672.061C760.561 665.939 772.742 662.879 786.864 662.879C799.045 662.879 809.712 665.091 818.864 669.515C828.015 673.939 835.258 680.151 840.591 688.151C845.924 696.151 848.864 705.545 849.409 716.333H812.864C811.833 709.364 809.106 703.757 804.682 699.515C800.318 695.212 794.591 693.061 787.5 693.061C781.5 693.061 776.258 694.697 771.773 697.97C767.348 701.182 763.894 705.879 761.409 712.061C758.924 718.242 757.682 725.727 757.682 734.515C757.682 743.424 758.894 751 761.318 757.242C763.803 763.485 767.288 768.242 771.773 771.515C776.258 774.788 781.5 776.424 787.5 776.424C791.924 776.424 795.894 775.515 799.409 773.697C802.985 771.879 805.924 769.242 808.227 765.788C810.591 762.273 812.136 758.061 812.864 753.151H849.409C848.803 763.818 845.894 773.212 840.682 781.333C835.53 789.394 828.409 795.697 819.318 800.242C810.227 804.788 799.47 807.061 787.045 807.061ZM937.295 807.061C923.174 807.061 910.962 804.061 900.659 798.061C890.417 792 882.508 783.576 876.932 772.788C871.356 761.939 868.568 749.364 868.568 735.061C868.568 720.636 871.356 708.03 876.932 697.242C882.508 686.394 890.417 677.97 900.659 671.97C910.962 665.909 923.174 662.879 937.295 662.879C951.417 662.879 963.598 665.909 973.841 671.97C984.144 677.97 992.083 686.394 997.659 697.242C1003.23 708.03 1006.02 720.636 1006.02 735.061C1006.02 749.364 1003.23 761.939 997.659 772.788C992.083 783.576 984.144 792 973.841 798.061C963.598 804.061 951.417 807.061 937.295 807.061ZM937.477 777.061C943.902 777.061 949.265 775.242 953.568 771.606C957.871 767.909 961.114 762.879 963.295 756.515C965.538 750.151 966.659 742.909 966.659 734.788C966.659 726.667 965.538 719.424 963.295 713.061C961.114 706.697 957.871 701.667 953.568 697.97C949.265 694.273 943.902 692.424 937.477 692.424C930.992 692.424 925.538 694.273 921.114 697.97C916.75 701.667 913.447 706.697 911.205 713.061C909.023 719.424 907.932 726.667 907.932 734.788C907.932 742.909 909.023 750.151 911.205 756.515C913.447 762.879 916.75 767.909 921.114 771.606C925.538 775.242 930.992 777.061 937.477 777.061ZM1069.93 618.151V804.333H1031.2V618.151H1069.93ZM1164.05 807.061C1149.92 807.061 1137.71 804.061 1127.41 798.061C1117.17 792 1109.26 783.576 1103.68 772.788C1098.11 761.939 1095.32 749.364 1095.32 735.061C1095.32 720.636 1098.11 708.03 1103.68 697.242C1109.26 686.394 1117.17 677.97 1127.41 671.97C1137.71 665.909 1149.92 662.879 1164.05 662.879C1178.17 662.879 1190.35 665.909 1200.59 671.97C1210.89 677.97 1218.83 686.394 1224.41 697.242C1229.98 708.03 1232.77 720.636 1232.77 735.061C1232.77 749.364 1229.98 761.939 1224.41 772.788C1218.83 783.576 1210.89 792 1200.59 798.061C1190.35 804.061 1178.17 807.061 1164.05 807.061ZM1164.23 777.061C1170.65 777.061 1176.02 775.242 1180.32 771.606C1184.62 767.909 1187.86 762.879 1190.05 756.515C1192.29 750.151 1193.41 742.909 1193.41 734.788C1193.41 726.667 1192.29 719.424 1190.05 713.061C1187.86 706.697 1184.62 701.667 1180.32 697.97C1176.02 694.273 1170.65 692.424 1164.23 692.424C1157.74 692.424 1152.29 694.273 1147.86 697.97C1143.5 701.667 1140.2 706.697 1137.95 713.061C1135.77 719.424 1134.68 726.667 1134.68 734.788C1134.68 742.909 1135.77 750.151 1137.95 756.515C1140.2 762.879 1143.5 767.909 1147.86 771.606C1152.29 775.242 1157.74 777.061 1164.23 777.061ZM1257.95 804.333V664.697H1295.5V689.061H1296.95C1299.5 680.394 1303.77 673.848 1309.77 669.424C1315.77 664.939 1322.68 662.697 1330.5 662.697C1332.44 662.697 1334.53 662.818 1336.77 663.061C1339.02 663.303 1340.98 663.636 1342.68 664.061V698.424C1340.86 697.879 1338.35 697.394 1335.14 696.97C1331.92 696.545 1328.98 696.333 1326.32 696.333C1320.62 696.333 1315.53 697.576 1311.05 700.061C1306.62 702.485 1303.11 705.879 1300.5 710.242C1297.95 714.606 1296.68 719.636 1296.68 725.333V804.333H1257.95ZM1419.84 807.061C1405.48 807.061 1393.11 804.151 1382.75 798.333C1372.45 792.454 1364.51 784.151 1358.93 773.424C1353.36 762.636 1350.57 749.879 1350.57 735.151C1350.57 720.788 1353.36 708.182 1358.93 697.333C1364.51 686.485 1372.36 678.03 1382.48 671.97C1392.66 665.909 1404.6 662.879 1418.3 662.879C1427.51 662.879 1436.08 664.364 1444.02 667.333C1452.02 670.242 1458.99 674.636 1464.93 680.515C1470.93 686.394 1475.6 693.788 1478.93 702.697C1482.27 711.545 1483.93 721.909 1483.93 733.788V744.424H1366.02V720.424H1447.48C1447.48 714.848 1446.27 709.909 1443.84 705.606C1441.42 701.303 1438.05 697.939 1433.75 695.515C1429.51 693.03 1424.57 691.788 1418.93 691.788C1413.05 691.788 1407.84 693.151 1403.3 695.879C1398.81 698.545 1395.3 702.151 1392.75 706.697C1390.2 711.182 1388.9 716.182 1388.84 721.697V744.515C1388.84 751.424 1390.11 757.394 1392.66 762.424C1395.27 767.454 1398.93 771.333 1403.66 774.061C1408.39 776.788 1413.99 778.151 1420.48 778.151C1424.78 778.151 1428.72 777.545 1432.3 776.333C1435.87 775.121 1438.93 773.303 1441.48 770.879C1444.02 768.454 1445.96 765.485 1447.3 761.97L1483.11 764.333C1481.3 772.939 1477.57 780.454 1471.93 786.879C1466.36 793.242 1459.14 798.212 1450.3 801.788C1441.51 805.303 1431.36 807.061 1419.84 807.061ZM1560.66 806.606C1550.05 806.606 1540.45 803.879 1531.84 798.424C1523.3 792.909 1516.51 784.818 1511.48 774.151C1506.51 763.424 1504.02 750.273 1504.02 734.697C1504.02 718.697 1506.6 705.394 1511.75 694.788C1516.9 684.121 1523.75 676.151 1532.3 670.879C1540.9 665.545 1550.33 662.879 1560.57 662.879C1568.39 662.879 1574.9 664.212 1580.11 666.879C1585.39 669.485 1589.63 672.757 1592.84 676.697C1596.11 680.576 1598.6 684.394 1600.3 688.151H1601.48V618.151H1640.11V804.333H1601.93V781.97H1600.3C1598.48 785.848 1595.9 789.697 1592.57 793.515C1589.3 797.273 1585.02 800.394 1579.75 802.879C1574.54 805.364 1568.17 806.606 1560.66 806.606ZM1572.93 775.788C1579.17 775.788 1584.45 774.091 1588.75 770.697C1593.11 767.242 1596.45 762.424 1598.75 756.242C1601.11 750.061 1602.3 742.818 1602.3 734.515C1602.3 726.212 1601.14 719 1598.84 712.879C1596.54 706.757 1593.2 702.03 1588.84 698.697C1584.48 695.364 1579.17 693.697 1572.93 693.697C1566.57 693.697 1561.2 695.424 1556.84 698.879C1552.48 702.333 1549.17 707.121 1546.93 713.242C1544.69 719.364 1543.57 726.454 1543.57 734.515C1543.57 742.636 1544.69 749.818 1546.93 756.061C1549.23 762.242 1552.54 767.091 1556.84 770.606C1561.2 774.061 1566.57 775.788 1572.93 775.788ZM1737.23 729.697C1737.23 752.303 1734.2 773.091 1728.14 792.061C1722.14 811.03 1712.92 828.606 1700.5 844.788H1663.5C1668.23 838.788 1672.62 831.454 1676.68 822.788C1680.74 814.121 1684.29 804.667 1687.32 794.424C1690.35 784.121 1692.71 773.454 1694.41 762.424C1696.11 751.394 1696.95 740.485 1696.95 729.697C1696.95 715.333 1695.47 700.848 1692.5 686.242C1689.59 671.576 1685.59 658 1680.5 645.515C1675.47 632.97 1669.8 622.697 1663.5 614.697H1700.5C1712.92 630.879 1722.14 648.454 1728.14 667.424C1734.2 686.394 1737.23 707.151 1737.23 729.697Z" fill="white"/>
<g filter="url(#filter0_d_5_165)">
<rect x="2082" y="0.222168" width="3840" height="1422.22" rx="48" fill="white"/>
<mask id="mask0_5_165" style="mask-type:alpha" maskUnits="userSpaceOnUse" x="2508" y="337" width="2988" height="749">
<path d="M2586.8 1057.13H2551.05C2543.36 1057.13 2537.11 1050.88 2537.11 1043.19C2537.11 1043.11 2537.04 1043.05 2536.96 1043.05H2508.81C2508.73 1043.05 2508.67 1043.11 2508.67 1043.19C2508.67 1066.56 2527.68 1085.57 2551.05 1085.57H2586.8C2610.17 1085.57 2629.18 1066.56 2629.18 1043.19C2629.18 1019.83 2610.17 1000.81 2586.8 1000.81H2551.05C2543.36 1000.81 2537.11 994.56 2537.11 986.874C2537.11 979.188 2543.36 972.935 2551.05 972.935H2586.8C2594.49 972.935 2600.74 979.188 2600.74 986.874C2600.74 986.955 2600.8 987.021 2600.88 987.021H2629.03C2629.11 987.021 2629.18 986.955 2629.18 986.874C2629.18 963.506 2610.17 944.495 2586.8 944.495H2551.05C2527.68 944.495 2508.67 963.506 2508.67 986.874C2508.67 1010.24 2527.68 1029.25 2551.05 1029.25H2586.8C2594.49 1029.25 2600.74 1035.51 2600.74 1043.19C2600.74 1050.88 2594.49 1057.13 2586.8 1057.13Z" fill="white"/>
<path d="M2689.47 1085.58H2719.03C2719.09 1085.58 2719.15 1085.53 2719.17 1085.47L2725.34 1066.3H2773.77L2779.93 1085.47C2779.95 1085.53 2780.01 1085.58 2780.07 1085.58H2809.63C2809.68 1085.58 2809.72 1085.55 2809.75 1085.52C2809.78 1085.48 2809.79 1085.43 2809.77 1085.38L2764.47 944.601C2764.45 944.54 2764.4 944.499 2764.33 944.499H2734.77C2734.71 944.499 2734.65 944.54 2734.63 944.601L2689.33 1085.38C2689.32 1085.43 2689.32 1085.48 2689.35 1085.52C2689.38 1085.55 2689.42 1085.58 2689.47 1085.58ZM2734.49 1037.85L2749.55 991.051L2764.61 1037.85H2734.49Z" fill="white"/>
<path d="M2880.19 1085.57H2908.34C2908.42 1085.57 2908.49 1085.51 2908.49 1085.42V944.642C2908.49 944.561 2908.42 944.495 2908.34 944.495H2880.19C2880.11 944.495 2880.05 944.561 2880.05 944.642V1085.42C2880.05 1085.51 2880.11 1085.57 2880.19 1085.57Z" fill="white"/>
<path d="M2978.91 972.945H3024.77V1085.42C3024.77 1085.51 3024.83 1085.57 3024.91 1085.57H3053.07C3053.15 1085.57 3053.22 1085.51 3053.22 1085.42V972.945H3099.08C3099.16 972.945 3099.22 972.88 3099.22 972.799V944.642C3099.22 944.561 3099.16 944.495 3099.08 944.495H2978.91C2978.83 944.495 2978.76 944.561 2978.76 944.642V972.799C2978.76 972.88 2978.83 972.945 2978.91 972.945Z" fill="white"/>
<path d="M3131.38 1085.58H3160.94C3161 1085.58 3161.06 1085.53 3161.08 1085.47L3167.25 1066.3H3215.68L3221.84 1085.47C3221.86 1085.53 3221.92 1085.58 3221.98 1085.58H3251.54C3251.59 1085.58 3251.63 1085.55 3251.66 1085.52C3251.69 1085.48 3251.7 1085.43 3251.68 1085.38L3206.38 944.601C3206.36 944.54 3206.31 944.499 3206.24 944.499H3176.68C3176.62 944.499 3176.56 944.54 3176.54 944.601L3131.24 1085.38C3131.23 1085.43 3131.23 1085.48 3131.26 1085.52C3131.29 1085.55 3131.33 1085.58 3131.38 1085.58ZM3176.4 1037.85L3191.46 991.051L3206.52 1037.85H3176.4Z" fill="white"/>
<path d="M3442.31 1085.43C3442.31 1085.51 3442.37 1085.58 3442.46 1085.58H3470.6C3470.69 1085.58 3470.75 1085.51 3470.75 1085.43V944.645C3470.75 944.564 3470.69 944.499 3470.6 944.499H3437.51C3437.46 944.499 3437.41 944.524 3437.38 944.568L3396.35 1010.92L3355.32 944.568C3355.3 944.524 3355.25 944.499 3355.2 944.499H3322.1C3322.02 944.499 3321.96 944.564 3321.96 944.645V1085.43C3321.96 1085.51 3322.02 1085.58 3322.1 1085.58H3350.24C3350.32 1085.58 3350.39 1085.51 3350.39 1085.43V990.653L3396.23 1064.78C3396.28 1064.87 3396.43 1064.87 3396.48 1064.78L3442.31 990.676L3442.31 1085.43Z" fill="white"/>
<path d="M3541.21 1085.58H3570.77C3570.84 1085.58 3570.89 1085.53 3570.91 1085.47L3577.08 1066.3H3625.51L3631.68 1085.47C3631.7 1085.53 3631.75 1085.58 3631.82 1085.58H3661.38C3661.42 1085.58 3661.47 1085.55 3661.49 1085.52C3661.52 1085.48 3661.53 1085.43 3661.52 1085.38L3616.22 944.601C3616.2 944.54 3616.14 944.499 3616.08 944.499H3586.52C3586.45 944.499 3586.4 944.54 3586.38 944.601L3541.07 1085.38C3541.06 1085.43 3541.07 1085.48 3541.09 1085.52C3541.12 1085.55 3541.17 1085.58 3541.21 1085.58ZM3586.24 1037.85L3601.29 991.051L3616.35 1037.85H3586.24Z" fill="white"/>
<path d="M3965.72 944.499H3937.57C3937.49 944.499 3937.43 944.564 3937.43 944.645V1025.34C3937.43 1042.87 3923.16 1057.13 3905.63 1057.13C3888.1 1057.13 3873.84 1042.87 3873.84 1025.34V944.645C3873.84 944.564 3873.78 944.499 3873.7 944.499H3845.55C3845.47 944.499 3845.4 944.564 3845.4 944.645V1025.34C3845.4 1058.55 3872.42 1085.57 3905.63 1085.57C3938.84 1085.57 3965.86 1058.55 3965.86 1025.34V944.645C3965.86 944.564 3965.8 944.499 3965.72 944.499Z" fill="white"/>
<path d="M4036.27 1085.58H4064.41C4064.49 1085.58 4064.56 1085.51 4064.56 1085.43V990.664L4123.22 1085.51C4123.24 1085.55 4123.29 1085.58 4123.34 1085.58H4156.44C4156.52 1085.58 4156.58 1085.51 4156.58 1085.43V944.645C4156.58 944.564 4156.52 944.499 4156.44 944.499H4128.29C4128.21 944.499 4128.14 944.564 4128.14 944.645V1039.41L4069.49 944.568C4069.47 944.524 4069.42 944.499 4069.37 944.499H4036.27C4036.19 944.499 4036.13 944.564 4036.13 944.645V1085.43C4036.13 1085.51 4036.19 1085.58 4036.27 1085.58Z" fill="white"/>
<path d="M4227 1085.57H4255.14C4255.22 1085.57 4255.29 1085.51 4255.29 1085.42V944.642C4255.29 944.561 4255.22 944.495 4255.14 944.495H4227C4226.91 944.495 4226.85 944.561 4226.85 944.642V1085.42C4226.85 1085.51 4226.91 1085.57 4227 1085.57Z" fill="white"/>
<path d="M4371.02 1085.58H4400.57C4400.64 1085.58 4400.7 1085.53 4400.71 1085.47L4446.02 944.69C4446.03 944.645 4446.02 944.596 4445.99 944.559C4445.97 944.521 4445.92 944.499 4445.88 944.499H4416.32C4416.25 944.499 4416.2 944.54 4416.18 944.601L4385.8 1039.02L4355.41 944.601C4355.39 944.54 4355.34 944.499 4355.27 944.499H4325.71C4325.67 944.499 4325.62 944.521 4325.59 944.559C4325.57 944.596 4325.56 944.645 4325.57 944.69L4370.88 1085.47C4370.89 1085.53 4370.95 1085.58 4371.02 1085.58Z" fill="white"/>
<path d="M4516.44 1085.57H4636.6C4636.68 1085.57 4636.75 1085.51 4636.75 1085.42V1057.27C4636.75 1057.19 4636.68 1057.12 4636.6 1057.12H4544.74V1029.26H4608.46C4608.54 1029.26 4608.6 1029.19 4608.6 1029.11V1000.96C4608.6 1000.87 4608.54 1000.81 4608.46 1000.81H4544.74V972.945H4636.6C4636.68 972.945 4636.75 972.88 4636.75 972.799V944.642C4636.75 944.561 4636.68 944.495 4636.6 944.495H4516.44C4516.35 944.495 4516.29 944.561 4516.29 944.642V1085.42C4516.29 1085.51 4516.35 1085.57 4516.44 1085.57Z" fill="white"/>
<path d="M4707.16 1085.58H4735.31C4735.39 1085.58 4735.46 1085.51 4735.46 1085.43V1054.74H4772.35C4773.25 1054.74 4774.16 1054.71 4775.04 1054.67L4794.11 1085.51C4794.14 1085.55 4794.19 1085.58 4794.24 1085.58H4827.32C4827.38 1085.58 4827.42 1085.55 4827.45 1085.5C4827.48 1085.45 4827.48 1085.4 4827.45 1085.35L4802.83 1045.53C4818.26 1035.29 4827.47 1018.14 4827.47 999.617C4827.47 969.225 4802.74 944.499 4772.35 944.499H4707.16C4707.08 944.499 4707.01 944.564 4707.01 944.645V1085.43C4707.01 1085.51 4707.08 1085.58 4707.16 1085.58ZM4787.73 1021.41C4783.24 1024.6 4777.92 1026.29 4772.35 1026.29H4735.46V972.942H4772.35C4787.06 972.942 4799.03 984.909 4799.03 999.617C4799.03 1008.27 4794.8 1016.41 4787.73 1021.41Z" fill="white"/>
<path d="M4972.85 1057.13H4937.09C4929.41 1057.13 4923.15 1050.88 4923.15 1043.19C4923.15 1043.11 4923.09 1043.05 4923.01 1043.05H4894.86C4894.78 1043.05 4894.71 1043.11 4894.71 1043.19C4894.71 1066.56 4913.73 1085.57 4937.09 1085.57H4972.85C4996.21 1085.57 5015.22 1066.56 5015.22 1043.19C5015.22 1019.83 4996.21 1000.81 4972.85 1000.81H4937.09C4929.41 1000.81 4923.15 994.56 4923.15 986.874C4923.15 979.188 4929.41 972.935 4937.09 972.935H4972.85C4980.53 972.935 4986.79 979.188 4986.79 986.874C4986.79 986.955 4986.85 987.021 4986.93 987.021H5015.08C5015.16 987.021 5015.22 986.955 5015.22 986.874C5015.22 963.506 4996.21 944.495 4972.85 944.495H4937.09C4913.72 944.495 4894.71 963.506 4894.71 986.874C4894.71 1010.24 4913.73 1029.25 4937.09 1029.25H4972.85C4980.53 1029.25 4986.79 1035.51 4986.79 1043.19C4986.79 1050.88 4980.53 1057.13 4972.85 1057.13Z" fill="white"/>
<path d="M5085.58 1085.57H5113.73C5113.81 1085.57 5113.88 1085.51 5113.88 1085.42V944.642C5113.88 944.561 5113.81 944.495 5113.73 944.495H5085.58C5085.5 944.495 5085.44 944.561 5085.44 944.642V1085.42C5085.44 1085.51 5085.5 1085.57 5085.58 1085.57Z" fill="white"/>
<path d="M5184.3 972.945H5230.16V1085.42C5230.16 1085.51 5230.22 1085.57 5230.3 1085.57H5258.46C5258.54 1085.57 5258.61 1085.51 5258.61 1085.42V972.945H5304.47C5304.55 972.945 5304.61 972.88 5304.61 972.799V944.642C5304.61 944.561 5304.55 944.495 5304.47 944.495H5184.3C5184.22 944.495 5184.15 944.561 5184.15 944.642V972.799C5184.15 972.88 5184.22 972.945 5184.3 972.945Z" fill="white"/>
<path d="M5495.31 944.567C5495.28 944.524 5495.24 944.499 5495.19 944.499H5464.19C5464.14 944.499 5464.09 944.532 5464.06 944.584L5435.11 1007.24L5406.15 944.584C5406.12 944.533 5406.07 944.499 5406.02 944.499H5375.02C5374.97 944.499 5374.93 944.524 5374.9 944.567C5374.87 944.609 5374.87 944.662 5374.89 944.708L5419.46 1041.21L5420.88 1044.28V1085.43C5420.88 1085.51 5420.95 1085.58 5421.03 1085.58H5449.18C5449.26 1085.58 5449.32 1085.51 5449.32 1085.43V1044.29L5450.75 1041.21C5450.75 1041.21 5450.74 1041.2 5450.75 1041.2L5495.32 944.707C5495.34 944.662 5495.34 944.609 5495.31 944.567Z" fill="white"/>
<path d="M2933.68 834.797C2933.68 835.084 2933.91 835.316 2934.2 835.316H3033.61C3033.9 835.316 3034.13 835.084 3034.13 834.797V337.632C3034.13 337.346 3033.9 337.114 3033.61 337.114H2916.73C2916.56 337.114 2916.39 337.205 2916.29 337.358L2771.4 571.685L2626.5 337.358C2626.41 337.205 2626.24 337.114 2626.06 337.114H2509.19C2508.9 337.114 2508.67 337.346 2508.67 337.632V834.797C2508.67 835.084 2508.9 835.316 2509.19 835.316H2608.55C2608.84 835.316 2609.07 835.084 2609.07 834.797V500.104L2770.96 761.884C2771.14 762.191 2771.65 762.191 2771.84 761.884L2933.69 500.187L2933.68 834.797Z" fill="white"/>
<path d="M3733.85 491.987C3733.95 492.141 3734.11 492.232 3734.29 492.232C3734.47 492.232 3734.64 492.141 3734.73 491.987L3830.03 337.896C3830.13 337.735 3830.14 337.535 3830.04 337.369C3829.95 337.203 3829.78 337.104 3829.59 337.104H3638.99C3638.8 337.104 3638.63 337.203 3638.54 337.369C3638.45 337.535 3638.45 337.734 3638.55 337.896L3733.85 491.987ZM3734.73 680.423C3734.54 680.12 3734.04 680.12 3733.85 680.423L3638.55 834.514C3638.45 834.675 3638.45 834.875 3638.54 835.041C3638.63 835.207 3638.8 835.306 3638.99 835.306H3829.59C3829.78 835.306 3829.95 835.207 3830.04 835.041C3830.14 834.875 3830.13 834.675 3830.03 834.514L3734.73 680.423ZM3676.32 585.952L3522.6 337.349C3522.6 337.332 3522.57 337.328 3522.56 337.311C3522.52 337.262 3522.48 337.233 3522.42 337.199C3522.37 337.17 3522.33 337.15 3522.27 337.137C3522.23 337.129 3522.2 337.092 3522.16 337.092H3319.61C3319.6 337.092 3319.59 337.104 3319.59 337.104H3257.79C3257.57 337.104 3257.36 337.249 3257.3 337.465L3097.32 834.63C3097.27 834.788 3097.3 834.962 3097.39 835.095C3097.49 835.227 3097.64 835.306 3097.81 835.306H3202.2C3202.42 835.306 3202.62 835.161 3202.69 834.945L3224.47 767.252H3395.5L3417.28 834.945C3417.35 835.161 3417.55 835.306 3417.77 835.306H3522.16C3522.19 835.306 3522.23 835.302 3522.26 835.298C3522.39 835.273 3522.49 835.198 3522.57 835.103C3522.57 835.099 3522.58 835.099 3522.58 835.095C3522.58 835.09 3522.58 835.078 3522.58 835.074C3522.59 835.07 3522.6 835.07 3522.6 835.065L3676.32 586.504C3676.42 586.334 3676.42 586.122 3676.32 585.952ZM3256.81 666.76L3309.99 501.496L3363.16 666.76H3256.81Z" fill="white"/>
<path d="M3893.32 835.303H3992.72C3993 835.303 3993.24 835.071 3993.24 834.785V337.62C3993.24 337.334 3993 337.101 3992.72 337.101H3893.32C3893.04 337.101 3892.8 337.334 3892.8 337.62V834.785C3892.8 835.071 3893.04 835.303 3893.32 835.303Z" fill="white"/>
<path d="M4481.28 834.797C4481.28 835.084 4481.51 835.316 4481.8 835.316H4581.21C4581.49 835.316 4581.73 835.084 4581.73 834.797V337.632C4581.73 337.346 4581.49 337.114 4581.21 337.114H4464.33C4464.15 337.114 4463.98 337.205 4463.89 337.358L4319 571.685L4174.1 337.358C4174.01 337.205 4173.84 337.114 4173.66 337.114H4056.78C4056.5 337.114 4056.27 337.346 4056.27 337.632V834.797C4056.27 835.084 4056.5 835.316 4056.78 835.316H4156.15C4156.44 835.316 4156.67 835.084 4156.67 834.797V500.104L4318.56 761.884C4318.74 762.191 4319.25 762.191 4319.44 761.884L4481.29 500.187L4481.28 834.797Z" fill="white"/>
<path d="M4871.5 622.62V337.614C4871.5 337.328 4871.27 337.095 4870.98 337.095H4645.41C4645.12 337.095 4644.89 337.328 4644.89 337.614V622.62C4644.89 685.086 4695.71 735.906 4758.17 735.906C4820.67 735.906 4871.5 685.086 4871.5 622.62ZM5494.82 337.124H5377.94C5377.76 337.124 5377.6 337.216 5377.5 337.373L5232.6 571.7L5087.71 337.369C5087.61 337.216 5087.45 337.12 5087.27 337.12H4970.39C4970.11 337.12 4969.87 337.353 4969.87 337.639V622.611C4969.87 739.321 4874.93 834.269 4758.22 834.269C4757.93 834.269 4757.7 834.501 4757.7 834.787C4757.7 835.073 4757.93 835.306 4758.22 835.306H4970.34C4970.36 835.306 4970.37 835.327 4970.39 835.327H5069.76C5070.04 835.327 5070.28 835.094 5070.28 834.808V500.115L5232.16 761.895C5232.35 762.202 5232.86 762.202 5233.04 761.895L5394.89 500.198V834.808C5394.89 835.094 5395.12 835.327 5395.41 835.327H5494.82C5495.1 835.327 5495.33 835.094 5495.33 834.808V337.643C5495.33 337.353 5495.1 337.124 5494.82 337.124Z" fill="white"/>
</mask>
<g mask="url(#mask0_5_165)">
<rect x="2082" y="0.222168" width="3840" height="1422.22" fill="url(#paint0_linear_5_165)"/>
</g>
</g>
<defs>
<filter id="filter0_d_5_165" x="1832" y="0.222168" width="4340" height="1928.22" filterUnits="userSpaceOnUse" color-interpolation-filters="sRGB">
<feFlood flood-opacity="0" result="BackgroundImageFix"/>
<feColorMatrix in="SourceAlpha" type="matrix" values="0 0 0 0 0 0 0 0 0 0 0 0 0 0 0 0 0 0 127 0" result="hardAlpha"/>
<feOffset dy="256"/>
<feGaussianBlur stdDeviation="125"/>
<feComposite in2="hardAlpha" operator="out"/>
<feColorMatrix type="matrix" values="0 0 0 0 0 0 0 0 0 0 0 0 0 0 0 0 0 0 0.25 0"/>
<feBlend mode="normal" in2="BackgroundImageFix" result="effect1_dropShadow_5_165"/>
<feBlend mode="normal" in="SourceGraphic" in2="effect1_dropShadow_5_165" result="shape"/>
</filter>
<linearGradient id="paint0_linear_5_165" x1="5922" y1="1422.44" x2="3362.88" y2="-1233.82" gradientUnits="userSpaceOnUse">
<stop stop-color="#63C178"/>
<stop offset="1" stop-color="#34AA8E"/>
</linearGradient>
</defs>
</svg>
